<?xml version="1.0" encoding="utf-8"?>
<!-- Generator: Adobe Illustrator 19.0.0, SVG Export Plug-In . SVG Version: 6.00 Build 0)  -->
<svg version="1.1" id="Layer_1" xmlns="http://www.w3.org/2000/svg" xmlns:xlink="http://www.w3.org/1999/xlink" x="0px" y="0px"
	 viewBox="40 48.4 500 500" style="enable-background:new 40 48.4 500 500;" xml:space="preserve">
<style type="text/css">
	.st0{fill:#EBEBEB;}
	.st1{fill:#F5F5F5;}
	.st2{fill:#E6E6E6;}
	.st3{fill:#FAFAFA;}
	.st4{fill:#FFFFFF;}
	.st5{fill:#E0E0E0;}
	.st6{fill:#F0F0F0;}
	.st7{fill:#B97964;}
	.st8{fill:#FFCC00;}
	.st9{opacity:0.2;enable-background:new    ;}
	.st10{opacity:0.2;fill:#FFCC00;enable-background:new    ;}
	.st11{fill:#A76755;}
	.st12{fill:#1048C6;}
	.st13{opacity:0.7;enable-background:new    ;}
	.st14{fill:#263238;}
	.st15{opacity:0.5;enable-background:new    ;}
	.st16{fill:#26AE61;}
	.st17{opacity:0.7;fill:#FFFFFF;enable-background:new    ;}
	.st18{opacity:0.4;enable-background:new    ;}
	.st19{fill:#A24E3F;}
	.st20{opacity:0.9;}
	.st21{opacity:0.9;fill:#FFCC00;enable-background:new    ;}
	.st22{opacity:0.5;fill:#FFCC00;enable-background:new    ;}
	.st23{opacity:0.9;fill:#1048C6;enable-background:new    ;}
	.st24{opacity:0.9;fill:#26AE61;enable-background:new    ;}
	.st25{opacity:0.6;fill:#26AE61;enable-background:new    ;}
	.st26{opacity:0.9;fill:#FFFFFF;enable-background:new    ;}
	.st27{opacity:0.6;fill:#FFFFFF;enable-background:new    ;}
	.st28{opacity:0.8;fill:#FFFFFF;enable-background:new    ;}
</style>
<g id="freepik--background-complete--inject-2">
	<rect x="40" y="430.8" class="st0" width="500" height="0.3"/>
	<rect x="377.9" y="442" class="st0" width="10.5" height="0.3"/>
	<rect x="104.9" y="437" class="st0" width="40.3" height="0.3"/>
	<rect x="165.2" y="437.7" class="st0" width="59.2" height="0.3"/>
	<rect x="292" y="437.7" class="st0" width="17" height="0.3"/>
	<rect x="431.4" y="439.3" class="st0" width="54.6" height="0.3"/>
	<rect x="246.2" y="443.4" class="st0" width="22.6" height="0.3"/>
	<rect x="491.9" y="439.5" class="st0" width="14.3" height="0.3"/>
	<path class="st0" d="M277,386.2H83.9c-3.1,0-5.7-2.6-5.7-5.7V109.1c0-3.1,2.6-5.7,5.7-5.7H277c3.2,0,5.7,2.6,5.7,5.7c0,0,0,0,0,0
		v271.4C282.7,383.7,280.2,386.2,277,386.2z M83.9,103.6c-3,0-5.5,2.4-5.5,5.5v271.4c0,3,2.4,5.5,5.5,5.5H277c3,0,5.5-2.4,5.5-5.5
		V109.1c0-3-2.4-5.5-5.5-5.5H83.9z"/>
	<path class="st0" d="M493.3,386.2H300.2c-3.2,0-5.7-2.6-5.7-5.7V109.1c0-3.1,2.6-5.7,5.7-5.7h193.1c3.1,0,5.7,2.5,5.7,5.7v271.4
		C499,383.7,496.5,386.2,493.3,386.2z M300.2,103.6c-3,0-5.5,2.4-5.5,5.5v271.4c0,3,2.4,5.5,5.5,5.5h193.1c3,0,5.5-2.4,5.5-5.5
		V109.1c0-3-2.4-5.5-5.5-5.5H300.2z"/>
	<rect x="112.8" y="122.1" class="st1" width="136.3" height="158.8"/>
	<rect x="109.1" y="122.1" class="st1" width="138.3" height="158.8"/>
	<rect x="112.8" y="280.9" class="st2" width="136.3" height="8.9"/>
	<rect x="92.2" y="280.9" class="st1" width="130.1" height="8.9"/>
	<rect x="114.3" y="128.8" class="st3" width="127.9" height="145.3"/>
	<polygon class="st4" points="223.8,274.1 193.3,128.8 153.4,128.8 183.9,274.1 	"/>
	<polygon class="st4" points="177.4,274.1 147,128.8 129,128.8 159.4,274.1 	"/>
	<rect x="114.3" y="127.9" class="st4" width="0.7" height="131"/>
	<path class="st2" d="M253,121.8v56.5h-15c0,0-26.9-17.5-33-53.6c-0.6-3.3,1.6-6.4,4.9-6.9c0.3-0.1,0.7-0.1,1-0.1h38
		C251.1,117.8,253,119.6,253,121.8C253,121.8,253,121.8,253,121.8z"/>
	<path class="st2" d="M253,269v-86.1h-15c0,0-8.6,17.4-17.2,37.4c-7.6,17.8,0.7,38.3,18.5,45.9C243.6,268.1,248.3,269,253,269z"/>
	<path class="st1" d="M252.4,182.9h-14c-0.8,0-1.5-0.7-1.5-1.5v-1.6c0-0.8,0.7-1.5,1.5-1.5h14c0.8,0,1.5,0.7,1.5,1.5v1.6
		C253.9,182.3,253.3,182.9,252.4,182.9z"/>
	<path class="st2" d="M104.9,121.8v56.5h15c0,0,26.9-17.5,33-53.6c0.6-3.3-1.6-6.4-4.9-6.9c-0.3-0.1-0.7-0.1-1-0.1h-38
		C106.7,117.8,104.9,119.6,104.9,121.8C104.9,121.8,104.9,121.8,104.9,121.8z"/>
	<path class="st2" d="M104.9,269v-86.1h15c0,0,8.6,17.4,17.2,37.4c7.6,17.8-0.7,38.3-18.5,45.9C114.2,268.1,109.6,269,104.9,269
		L104.9,269z"/>
	<path class="st1" d="M105.4,178.4h14c0.8,0,1.5,0.7,1.5,1.5v1.6c0,0.8-0.7,1.5-1.5,1.5h-14c-0.8,0-1.5-0.7-1.5-1.5v-1.6
		C103.9,179.1,104.6,178.4,105.4,178.4z"/>
	<rect x="409.4" y="141.6" class="st5" width="60" height="108.2"/>
	<rect x="402.6" y="141.6" class="st1" width="65.2" height="108.2"/>
	<rect x="409.4" y="148.3" class="st4" width="51.8" height="94.8"/>
	<rect x="427.4" y="167.4" class="st1" width="15.6" height="14"/>
	<rect x="427.5" y="188.7" class="st1" width="15.6" height="14"/>
	<rect x="427.5" y="209.9" class="st1" width="15.6" height="14"/>
	<path class="st2" d="M345.2,224.4c18.1-0.3,32.6-15.3,32.3-33.4c-0.3-17.7-14.6-32-32.3-32.3h-2v65.7H345.2z"/>
	<circle class="st1" cx="343.1" cy="191.6" r="32.8"/>
	<circle class="st4" cx="343.1" cy="191.6" r="24.8"/>
	<polygon class="st2" points="332.9,200.9 331,198.1 341.3,190.9 337.9,174.4 341.2,173.7 345,192.4 	"/>
	<rect x="183.5" y="318.5" class="st2" width="42.9" height="115.9"/>
	<polygon class="st6" points="195,434.4 183.5,434.4 183.5,415.2 207,415.2 	"/>
	<rect x="440.7" y="318.5" class="st6" width="42.9" height="115.9"/>
	<rect x="183.5" y="318.5" class="st3" width="267.3" height="109.3"/>
	<polygon class="st6" points="439.3,434.4 450.8,434.4 450.8,415.2 427.3,415.2 	"/>
	<rect x="192.4" y="327.9" class="st6" width="249.5" height="40.2"/>
	<rect x="192.4" y="377.8" class="st6" width="249.5" height="40.2"/>
	<circle class="st1" cx="375.9" cy="298.2" r="9"/>
	<path class="st1" d="M382.2,302.4c0,3.9,3.1,7,7,7s7-3.1,7-7s-3.1-7-7-7S382.2,298.6,382.2,302.4z"/>
	<circle class="st1" cx="360.6" cy="302.4" r="9"/>
	<circle class="st1" cx="345.9" cy="299.8" r="9"/>
	<path class="st2" d="M413.9,301c0,0-1.2,17.5-48.4,17.5S317.1,301,317.1,301H413.9z"/>
</g>
<g id="freepik--Shadow--inject-2">
	<ellipse class="st1" cx="290" cy="464.7" rx="193.9" ry="11.3"/>
</g>
<g id="freepik--Character--inject-2">
	<path class="st7" d="M246.3,209.1c0.1,0.4,0.4,1.1,0.6,1.7l0.6,1.8c0.4,1.2,0.9,2.4,1.4,3.5c1,2.3,2.1,4.6,3.4,6.8
		c2.5,4.3,5.4,8.2,9,10.7l0.6,0.4l0,0c0,0,0,0.1,0.2,0.1c0.7,0,1.3-0.2,1.9-0.5c2-1.1,3.9-2.5,5.6-4.1c1.9-1.8,3.8-3.6,5.5-5.6
		c1.8-2,3.5-4.1,5.2-6.1l4.8,2.9c-2.5,5.3-5.6,10.2-9.3,14.7c-2,2.5-4.4,4.7-7.1,6.4c-1.8,1.1-3.8,1.9-5.8,2.1
		c-1.3,0.1-2.7,0-3.9-0.4c-0.7-0.2-1.3-0.5-1.9-0.8l-1.1-0.6c-2.8-1.7-5.3-3.8-7.5-6.2c-2.1-2.3-4-4.8-5.6-7.4c-1.6-2.6-3-5.2-4.2-8
		c-0.6-1.4-1.1-2.7-1.7-4.1c-0.3-0.7-0.5-1.4-0.7-2.1s-0.4-1.4-0.7-2.3L246.3,209.1z"/>
	<path class="st8" d="M256.6,226.8l-12.8,7.1c0,0-0.4-0.6-1-1.5c-0.4-0.7-1-1.6-1.7-2.7c-3.8-6.1-10-17.3-8.4-22
		c2.5-7.3,11.7-7.2,16.2,1.3c2.2,4.2,4.1,8.5,5.9,12.9c0.5,1.2,0.9,2.2,1.2,3C256.4,226.1,256.6,226.8,256.6,226.8z"/>
	<path class="st9" d="M256.6,226.8l-12.8,7.1c0,0-0.4-0.6-1-1.5c-0.4-0.7-1-1.6-1.7-2.7c-3.8-6.1-10-17.3-8.4-22
		c2.5-7.3,5.6-0.3,10.1,8.1c2.2,4.2,10.2,1.7,11.9,6.1c0.5,1.2,0.9,2.2,1.2,3C256.4,226.1,256.6,226.8,256.6,226.8z"/>
	<path class="st9" d="M256,224.9l-13.1,7.4c-0.4-0.7-1-1.6-1.7-2.7l13.7-7.7C255.3,223.1,255.7,224.1,256,224.9z"/>
	<path class="st9" d="M232.6,208.5c2.9-1.4,6.2-0.2,9.6,5.3s6.4,14.7,6.8,17.3l-5.1,2.8C243.9,233.8,231.5,215.8,232.6,208.5z"/>
	<path class="st8" d="M244.4,267h-39.7c-0.3-3.5,0.5-15.1-0.1-29.7c-0.4-10.9-1.7-21.7-3.9-32.3c-0.2-0.8-0.4-1.6-0.6-2.4
		c0,0,2-0.4,4.9-0.8c2.4-0.4,5.4-0.7,8.3-0.9c5.6-0.3,11.2-0.3,16.9,0c2.6,0.2,5.1,0.7,7.1,1.1c2.6,0.5,4.3,1,4.3,1
		S251.3,225.4,244.4,267z"/>
	<path class="st10" d="M243.7,266.3l-38.9,0.8c-0.3-3.5,0.5-15.1-0.1-29.7c-0.4-10.9-1.7-21.7-3.9-32.3c-0.2-0.8-0.4-1.6-0.6-2.4
		c0,0,2-0.4,4.9-0.8c2.4-0.4,5.4-0.7,8.3-0.9c5.6-0.3,11.2-0.3,16.9,0c2.6,0.2,5.1,0.7,7.1,1.1c2.6,0.5-2.5-3.6-2.5-3.6
		S250.6,224.6,243.7,266.3z"/>
	<polygon class="st7" points="190.4,444.3 196.3,449.6 207.4,437.9 201.6,432.6 	"/>
	<polygon class="st7" points="210.5,455.3 217.9,455.3 218.9,438.1 211.5,438.1 	"/>
	<polygon class="st11" points="207.4,437.9 201.7,443.9 195.8,438.7 201.6,432.6 	"/>
	<polygon class="st11" points="211.5,438.1 218.9,438.1 218.4,446.9 211,446.9 	"/>
	<path class="st12" d="M244.1,266.7c0,0,7.8,54.1,10.5,83.5c2.1,23.6-48.9,94-48.9,94l-9.9-9.3c0,0,37.3-63.1,34.4-89.4
		c-2.8-25.5-12.2-78.8-12.2-78.8L244.1,266.7z"/>
	<path class="st13" d="M244.1,266.7c0,0,7.8,54.1,10.5,83.5c2.1,23.6-48.9,94-48.9,94l-9.9-9.3c0,0,37.3-63.1,34.4-89.4
		c-2.8-25.5-16.8-80.4-16.8-80.4L244.1,266.7z"/>
	<path class="st14" d="M218.3,454.4H210c-0.3,0-0.5,0.2-0.5,0.5c0,0,0,0,0,0l-0.4,6.6c0,0.7,0.6,1.3,1.3,1.3c2.9,0,4.3-0.2,8-0.2
		c2.3,0,11.8,0.2,14.9,0.2s3-3.1,1.7-3.4c-5.9-1.3-13.3-3-15.3-4.6C219.3,454.6,218.8,454.4,218.3,454.4z"/>
	<path class="st14" d="M197.9,447.4l-7.1-4.8c-0.2-0.2-0.6-0.2-0.8,0l-5.5,5.5c-0.4,0.5-0.4,1.1,0.1,1.6c0.1,0,0.1,0.1,0.2,0.1
		c4.6,3.5,7.9,6.1,10.4,9.1c3,3.4,4.6,3.9,11.6,3.9c3.2,0,5.1-2.7,3.8-3.1c-11.7-3.7-8.6-5.3-11.4-10.7
		C198.8,448.3,198.4,447.8,197.9,447.4z"/>
	<path class="st7" d="M279.4,219l2.5-8.2l6.6,4.9c0,0-3.6,7.3-6.1,6.6L279.4,219z"/>
	<polygon class="st7" points="288.9,207.8 292.6,212.3 288.5,215.7 281.9,210.9 	"/>
	<path class="st9" d="M204.7,237.3c-0.4-10.9-1.7-21.7-3.9-32.3c2.6-0.2,7.2,0,7.9,4.3C209.5,213.9,208.5,224.7,204.7,237.3z"/>
	<path class="st15" d="M230.2,345.5c-1.4-13.1-4.6-33.6-7.4-50.5c1.4-2.8,5.5-8.5,5.5-8.5c3.6,12.5,11.5,59.7,0.3,123.4
		c-11.7,18.9-22.9,34.3-22.9,34.3l-1.5-24.3C214.9,399.5,232.2,363.7,230.2,345.5z"/>
	<path class="st7" d="M207.4,213.4l-1.8,3c-0.6,1-1.2,2.1-1.7,3.1c-1.1,2.1-2.2,4.3-3.3,6.4c-1,2.1-2,4.3-2.9,6.5
		c-0.9,2.1-1.6,4.3-2.3,6.5l-0.1,0.4l-0.1,0.2c0,0.1,0,0,0,0c0,0.1-0.1,0.1-0.1,0.2c0,0.3,0,0.6,0,0.9c0.1,0.9,0.3,1.9,0.6,2.8
		c0.7,2.2,1.5,4.3,2.5,6.3c2,4.3,4.4,8.7,6.9,12.9l-4.4,3.4c-3.6-3.7-6.9-7.7-9.9-12.1c-1.5-2.3-2.9-4.7-4-7.2
		c-0.6-1.4-1.1-2.9-1.5-4.5c-0.2-0.9-0.3-1.9-0.3-2.8c0-0.6,0-1.1,0.1-1.7l0.1-0.4v-0.3l0.1-0.5c1.1-5.3,2.7-10.4,4.9-15.3
		c1.1-2.4,2.2-4.8,3.4-7.1c0.6-1.2,1.3-2.3,1.9-3.4s1.3-2.2,2.1-3.4L207.4,213.4z"/>
	<path class="st8" d="M210.1,216.1c-1.8,5.1-4,10.1-6.4,15c-0.5,1.1-1,2.1-1.4,2.9c-0.7,1.4-1.1,2.2-1.1,2.2l-15-8.3
		c0,0,0.2-0.6,0.5-1.7c0.3-0.8,0.6-1.9,1-3.1c2.5-7.1,7.6-19.9,12.6-20.6C207.7,201.5,213.1,207.1,210.1,216.1z"/>
	<path class="st9" d="M203.6,231.1c-0.5,1.1-1,2.1-1.4,2.9l-15.6-7.8c0.3-0.8,0.6-1.9,1-3.1L203.6,231.1z"/>
	<path class="st16" d="M220.9,455.7c-0.7,0-1.3-0.1-2-0.3c-0.1,0-0.1-0.1-0.1-0.1c0-0.1,0-0.1,0.1-0.2c0.2-0.2,2.3-1.6,3.2-1.3
		c0.2,0.1,0.4,0.3,0.4,0.5c0.1,0.3,0,0.7-0.2,0.9C221.9,455.6,221.4,455.7,220.9,455.7z M219.4,455.2c1.3,0.3,2.3,0.2,2.6-0.1
		c0.1-0.2,0.2-0.4,0.1-0.6c0-0.1-0.1-0.2-0.2-0.2C221.5,454,220.3,454.6,219.4,455.2L219.4,455.2z"/>
	<path class="st16" d="M219,455.4C219,455.4,218.9,455.4,219,455.4c-0.1,0-0.2-0.1-0.2-0.1c0-0.1-0.2-2.2,0.6-2.9
		c0.2-0.2,0.5-0.3,0.7-0.2c0.3,0,0.6,0.2,0.6,0.5C220.9,453.4,219.8,455,219,455.4L219,455.4z M220,452.4c-0.1,0-0.3,0.1-0.4,0.1
		c-0.4,0.7-0.6,1.5-0.5,2.4c0.6-0.5,1.4-1.7,1.3-2.3C220.4,452.6,220.3,452.5,220,452.4L220,452.4z"/>
	<path class="st16" d="M202.7,451.4c-1.3-0.2-2.6-0.7-3.7-1.4c-0.1,0-0.1-0.1-0.1-0.2c0-0.1,0.1-0.1,0.1-0.1c0.4,0,3.9-0.3,4.6,0.5
		c0.1,0.1,0.1,0.3,0.1,0.5c-0.1,0.3-0.3,0.5-0.5,0.6C203,451.4,202.9,451.4,202.7,451.4z M199.7,450c1.6,0.9,2.9,1.3,3.4,1
		c0.2-0.1,0.3-0.2,0.3-0.4c0-0.1,0-0.1,0-0.2C203,450,201.1,450,199.7,450L199.7,450z"/>
	<path class="st16" d="M199.1,450.1c-0.1,0-0.1,0-0.1-0.1c0-0.1,0-0.1,0-0.2c0.1-0.1,1.4-2.8,3.1-2c0.5,0.2,0.5,0.5,0.5,0.7
		C202.3,449.3,200.1,450.1,199.1,450.1L199.1,450.1z M201.4,448c-0.9,0-1.7,1.2-2,1.7c1.1-0.1,2.7-0.8,2.8-1.3
		c0-0.1-0.1-0.2-0.3-0.3C201.7,448,201.5,448,201.4,448z"/>
	<path class="st7" d="M203.3,261l7.4-1.3l-3.8,8.5c0,0-6.7,0-6.4-3.5L203.3,261z"/>
	<polygon class="st7" points="216.1,264.1 212.7,271 206.8,268.3 210.6,259.8 	"/>
	<polygon class="st16" points="195.1,434.3 206.2,444.8 209.8,440.9 197.1,429.4 	"/>
	<polygon class="st17" points="195.1,434.3 206.2,444.8 209.8,440.9 197.1,429.4 	"/>
	<path class="st12" d="M230,266.7c0,0,0.7,56.7-0.5,77.9c-1.3,23.3-7.9,100.3-7.9,100.3H208c0,0,0.4-75.1-0.4-98.1
		c-0.9-25-3.2-80-3.2-80L230,266.7z"/>
	<path class="st13" d="M231.5,267.4c0,0-0.8,55.9-2,77.1c-1.3,23.3-7.9,100.3-7.9,100.3H208c0,0,0.4-75.1-0.4-98.1
		c-0.9-25-3.2-80-3.2-80L231.5,267.4z"/>
	<polygon class="st16" points="207.4,444.8 222.1,444.8 222.9,439.6 206.7,440.5 	"/>
	<polygon class="st17" points="207.4,444.8 222.1,444.8 222.9,439.6 206.7,440.5 	"/>
	<path class="st9" d="M210.1,216.1c-1.8,5.1-4,10.1-6.4,15c-0.5,1.1-1,2.1-1.4,2.9c-0.7,1.4-1.1,2.2-1.1,2.2l-15-8.3
		c0,0,0.2-0.6,0.5-1.7c0.3-0.8,0.6-1.9,1-3.1c2.5-7.1,5.3-5.4,10.3-6.1C205.4,215.9,213.1,207.1,210.1,216.1z"/>
	<path class="st8" d="M235.1,207.4c-28.8,1.6,5.4,0.1-0.8,1.9l-0.1-4.1l-0.1,1.2c-12.6-2.3-27.1-0.6-27.9-1.9l-1.7-2.8
		c2.4-0.4,5.4-0.7,8.3-0.9c5.6-0.3,11.2-0.3,16.9,0c2.6,0.2,15.8,4.5,17.8,4.9C247.8,207.3,260.9,206,235.1,207.4z"/>
	<path class="st18" d="M220.7,207.4c-0.8,2.6,13,5.4,6.8,7.2l-1.6,0.5l9-9.4c0,0-27.8,0.1-28.6-1.2l-1.7-2.8
		c2.4-0.4,5.4-0.7,8.3-0.9c5.6-0.3,11.2-0.3,16.9,0c2.6,0.2,5.1,0.7,7.1,1.1C237.2,203.5,221.1,205.9,220.7,207.4z"/>
	<path class="st7" d="M226,208c-10.1-1.8-13.2-7-13.2-7c3.7-3.6,2.3-13.5,1-18.9l4.5,3.7l6.1,5.1c-0.2,0.8-0.3,1.6-0.4,2.5
		c-0.3,3.3,0.5,6.4,5.4,7.5C229.5,200.9,233.6,205.7,226,208z"/>
	<path class="st11" d="M224.5,190.9c-0.2,0.8-0.3,1.6-0.4,2.5c-2.3-0.5-5.4-2.9-5.7-5.2c-0.1-0.8-0.1-1.6-0.1-2.3L224.5,190.9z"/>
	<path class="st14" d="M228.6,163.1c3.7,1.7,5.7,11.9,1,14.2C224.9,179.4,221.7,159.9,228.6,163.1z"/>
	<path class="st7" d="M212,174.2c1.6,7.2,2.1,11.5,6.4,14.8c4.2,3.3,10.2,2.6,13.5-1.6c1.2-1.5,1.9-3.4,2-5.3
		c0.6-6.7-2.1-17.4-9.7-19.4c-5.1-1.5-10.5,1.4-12.1,6.5C211.7,170.8,211.6,172.5,212,174.2z"/>
	<path class="st14" d="M203.6,167.1c-3.5,1.6-1.5,6.3,0.9,9.4c3.3,4.2,6.8,6.2,9.2,4.3c2.1-1.1,3.6-7.4,1.7-11.3
		c3.3-2.2,10.1,0.5,12.3-3c2.1-3.5,3.6-3.2,7.4-0.9c3.8,2.3,6.8-6.8-3-8.6c5.4,2.4,4.2,7.2,0.2,2.3c-2.8-3.4-9.5-7.2-14.1-2.1
		C214.6,160.9,202.6,155.2,203.6,167.1z"/>
	<path class="st7" d="M210.3,181.7c1.2,1.4,2.8,2.4,4.6,2.7c2.3,0.4,2.8-1.7,1.6-3.8c-1-1.8-3.5-4.2-5.5-3.7
		S208.8,179.9,210.3,181.7z"/>
	<path class="st14" d="M223.3,174.9c0.1,0.6,0.5,1,0.9,1s0.6-0.6,0.5-1.1c-0.1-0.6-0.5-1-0.9-1S223.2,174.3,223.3,174.9z"/>
	<path class="st14" d="M230,174.1c0.1,0.6,0.5,1,0.9,1s0.6-0.6,0.5-1.2c-0.1-0.6-0.5-1-0.9-1S230,173.5,230,174.1z"/>
	<path class="st19" d="M228,174.7c1,1.7,2.2,3.3,3.6,4.7c-0.7,0.7-1.8,1-2.8,0.9L228,174.7z"/>
	<path class="st14" d="M226.6,182.1c-1.4,0-2.7-0.5-3.7-1.5c-0.1-0.1-0.1-0.2,0-0.3c0.1-0.1,0.2-0.1,0.3,0c1.1,1.1,2.6,1.6,4.1,1.4
		c0.1,0,0.2,0.1,0.2,0.1c0,0,0,0,0,0c0,0.1,0,0.2-0.1,0.2c0,0,0,0,0,0C227.1,182.1,226.9,182.1,226.6,182.1z"/>
	<path class="st14" d="M220.9,173c-0.1,0-0.1,0-0.2,0c-0.2-0.1-0.2-0.3-0.1-0.5c0.5-1,1.5-1.7,2.6-1.8c0.2,0,0.3,0.2,0.3,0.4
		c0,0.2-0.1,0.3-0.3,0.3l0,0c-0.9,0.1-1.6,0.6-2.1,1.4C221.1,172.9,221,173,220.9,173z"/>
	<path class="st14" d="M232.6,171.4c-0.1,0-0.2-0.1-0.3-0.2c-0.5-0.8-1.3-1.3-2.2-1.3c-0.2,0-0.4-0.2-0.4-0.3c0,0,0,0,0,0
		c0-0.2,0.2-0.3,0.4-0.3l0,0c1.1,0.1,2.2,0.7,2.8,1.6c0.1,0.2,0.1,0.4-0.1,0.5c0,0,0,0,0,0C232.7,171.4,232.6,171.4,232.6,171.4z"/>
</g>
<g id="freepik--Folder--inject-2">
	<g class="st20">
		<path class="st21" d="M336.9,287.2L336.9,287.2c1.7-4.4,5.9-7.3,10.6-7.4h88.2c5.3,0,8.9,4.3,8,9.6l-27.9,166.5
			c-1,5.4-5.7,9.4-11.2,9.6H183.6c-4.3,0.2-8-3.2-8.2-7.6c0-0.7,0-1.3,0.2-2l23.7-141.8c1-5.4,5.7-9.4,11.2-9.6h101.8
			C322.7,304.5,332.9,297.3,336.9,287.2z"/>
	</g>
	<path class="st22" d="M335.9,286.2c1.7-4.4,5.9-7.3,10.6-7.4h88.2c5.3,0,11.9,1.2,11,6.5l-30.9,169.6c-1,5.4-5.7,9.4-11.2,9.6
		H182.6c-5.2,0.2-9.1-4.5-8-9.6l23.7-141.8c1-5.4,5.7-9.4,11.2-9.6h101.8C321.7,303.5,331.9,296.3,335.9,286.2z"/>
	<path class="st23" d="M301.9,139.3l-66.7,231.8L387.7,415l66.7-231.8L301.9,139.3z"/>
	<path class="st17" d="M301.9,139.3l-66.7,231.8L387.7,415l62.9-247L301.9,139.3z"/>
	<path class="st24" d="M298.9,149.6l-63.8,221.5l147.4,42.4l59.8-229.3L298.9,149.6z"/>
	<path class="st25" d="M298.9,149.6l-63.8,221.5l147.4,42.4l59.8-229.3L298.9,149.6z"/>
	<g class="st20">
		<path class="st26" d="M298.9,149.6l-63.8,221.5l147.4,42.4l59.8-229.3L298.9,149.6z"/>
		<path class="st27" d="M298.9,149.6l-63.8,221.5l147.4,42.4l59.8-229.3L298.9,149.6z"/>
	</g>
	<circle class="st16" cx="332.2" cy="194.2" r="27.5"/>
	<path class="st4" d="M326.2,215.2c-11.6-3.3-18.2-15.4-14.9-27c3.3-11.6,15.4-18.2,27-14.9c11.6,3.3,18.2,15.4,14.9,27
		C349.9,211.8,337.8,218.5,326.2,215.2C326.2,215.2,326.2,215.2,326.2,215.2z"/>
	
		<rect x="291.7" y="230.9" transform="matrix(-0.961 -0.2765 0.2765 -0.961 556.1707 551.6084)" class="st16" width="50.5" height="11.4"/>
	
		<rect x="261.2" y="319" transform="matrix(-0.961 -0.2765 0.2765 -0.961 445.1991 744.9449)" class="st16" width="27.9" height="44.2"/>
	
		<rect x="355.9" y="346.3" transform="matrix(-0.961 -0.2765 0.2765 -0.961 623.45 824.5974)" class="st16" width="27.9" height="44.2"/>
	
		<rect x="308.5" y="332.6" transform="matrix(-0.961 -0.2765 0.2765 -0.961 534.3134 784.7795)" class="st16" width="27.9" height="44.2"/>
	
		<rect x="347" y="244.5" transform="matrix(-0.961 -0.2765 0.2765 -0.961 644.7965 591.1883)" class="st16" width="34.2" height="11.4"/>
	
		<rect x="284.3" y="265.1" transform="matrix(-0.961 -0.2765 0.2765 -0.961 606.3457 620.3075)" class="st4" width="125.1" height="4.7"/>
	
		<rect x="282.8" y="265.9" transform="matrix(-0.961 -0.2765 0.2765 -0.961 541.4476 612.8799)" class="st4" width="62.2" height="4.7"/>
	
		<rect x="353.2" y="283.2" transform="matrix(-0.961 -0.2765 0.2765 -0.961 654.5507 663.4152)" class="st4" width="41.6" height="4.7"/>
	
		<rect x="279.3" y="280.7" transform="matrix(-0.961 -0.2765 0.2765 -0.961 567.5881 646.1141)" class="st4" width="100" height="4.7"/>
	<rect x="275.1" y="293.1" transform="matrix(-0.96 -0.28 0.28 -0.96 569.1852 672.2378)" class="st4" width="115" height="4.7"/>
	
		<rect x="275.5" y="287.8" transform="matrix(-0.961 -0.2765 0.2765 -0.961 473.1011 647.0515)" class="st4" width="13.3" height="4.7"/>
	
		<rect x="297.6" y="300.7" transform="matrix(-0.961 -0.2765 0.2765 -0.961 557.4276 684.7332)" class="st4" width="58.7" height="4.7"/>
	
		<rect x="270.6" y="312.9" transform="matrix(-0.961 -0.2765 0.2765 -0.961 566.1763 710.2155)" class="st4" width="125.1" height="4.7"/>
	<path class="st12" d="M284.1,147.4l-58.6,234l154,38.6l58.6-234L284.1,147.4z"/>
	<path class="st28" d="M284.1,147.4l-58.6,234l154,38.6l62.4-234L284.1,147.4z"/>
	<circle class="st12" cx="316.3" cy="201.2" r="27.5"/>
	<circle class="st4" cx="316.3" cy="201.2" r="22.2"/>
	
		<rect x="277.3" y="238.4" transform="matrix(-0.97 -0.2431 0.2431 -0.97 536.7137 554.4336)" class="st12" width="50.5" height="11.4"/>
	
		<rect x="250.4" y="327.9" transform="matrix(-0.97 -0.2431 0.2431 -0.97 435.6738 753.7239)" class="st12" width="27.9" height="44.2"/>
	
		<rect x="346" y="351.9" transform="matrix(-0.97 -0.2431 0.2431 -0.97 618.207 824.1829)" class="st12" width="27.9" height="44.2"/>
	
		<rect x="298.2" y="339.9" transform="matrix(-0.97 -0.2431 0.2431 -0.97 526.9479 788.9541)" class="st12" width="27.9" height="44.2"/>
	
		<rect x="333" y="250.3" transform="matrix(-0.97 -0.2431 0.2431 -0.97 627.4549 589.4484)" class="st12" width="34.2" height="11.4"/>
	
		<rect x="271" y="271.5" transform="matrix(-0.97 -0.2431 0.2431 -0.97 590.4921 620.585)" class="st4" width="125.1" height="4.7"/>
	
		<rect x="269.5" y="273.5" transform="matrix(-0.97 -0.2431 0.2431 -0.97 525.157 616.5161)" class="st4" width="62.2" height="4.7"/>
	
		<rect x="340.5" y="288.7" transform="matrix(-0.97 -0.2431 0.2431 -0.97 640.9852 661.2159)" class="st4" width="41.6" height="4.7"/>
	
		<rect x="266.5" y="287.8" transform="matrix(-0.97 -0.2431 0.2431 -0.97 553.0393 648.4382)" class="st4" width="100" height="4.7"/>
	
		<rect x="263.9" y="299.2" transform="matrix(-0.97 -0.2431 0.2431 -0.97 559.7883 672.2136)" class="st4" width="115" height="4.7"/>
	
		<rect x="263" y="296.5" transform="matrix(-0.97 -0.2431 0.2431 -0.97 458.5196 654.3074)" class="st4" width="13.3" height="4.7"/>
	
		<rect x="285.5" y="307.8" transform="matrix(-0.97 -0.2431 0.2431 -0.97 544.8864 687.6171)" class="st4" width="58.7" height="4.7"/>
	
		<rect x="258.9" y="319.8" transform="matrix(-0.97 -0.2431 0.2431 -0.97 554.9591 712.6672)" class="st4" width="125.1" height="4.7"/>
	<path class="st22" d="M278.1,321.9c0.2-3.8,3.5-6.4,7.9-6.4l85.9,5.3c5.3,0,12.7-1.6,13.7,2.9L412,457.1c1,4.6-2.5,8.3-7.8,8.3
		H183.1c-5.3,0-10.4-3.7-11.4-8.3l-21.8-112c-1-4.6,2.5-8.3,7.8-8.3h101.8C270,336.9,277.6,330.7,278.1,321.9z"/>
</g>
</svg>
