<?xml version="1.0" encoding="utf-8"?>
<svg version="1.0" xmlns="http://www.w3.org/2000/svg" width="100%" viewBox="0 0 1059.000000 339.000000"
            preserveAspectRatio="xMidYMid meet">

            <g transform="translate(0.000000,339.000000) scale(0.100000,-0.100000)" fill="#13294D" stroke="none">
                <path d="M0 3071 l0 -319 48 15 c373 116 875 235 1272 302 773 130 1394 117
              1806 -38 196 -74 345 -180 454 -323 153 -199 260 -298 417 -380 268 -142 557
              -177 1178 -144 702 37 1019 15 1350 -95 327 -108 690 -349 980 -650 137 -142
              219 -242 458 -561 233 -311 326 -421 434 -513 140 -120 259 -184 416 -227 71
              -20 107 -22 277 -23 225 0 282 9 505 83 292 95 678 321 963 564 l32 27 0 1300
              0 1301 -5295 0 -5295 0 0 -319z" />
            </g>
        </svg>